<svg width="55" height="55" viewBox="0 0 55 55" fill="none" xmlns="http://www.w3.org/2000/svg">
<path d="M45.6982 5.5C48.6209 5.5 50.9997 7.72587 51 10.4619V44.5371C50.9999 47.274 48.6217 49.5 45.6982 49.5H9.30078C6.37803 49.5 4.0001 47.274 4 44.5371V10.4629C4.0001 7.72672 6.37803 5.5 9.30078 5.5H45.6982ZM9.30078 7.5625C7.59269 7.5625 6.20322 8.86384 6.20312 10.4629V44.5371C6.20323 46.1362 7.59269 47.4375 9.30078 47.4375H45.6982C47.4063 47.4375 48.7968 46.1362 48.7969 44.5371V10.4629C48.7968 8.86384 47.4063 7.5625 45.6982 7.5625H9.30078ZM27.499 29.2852C35.5672 29.2853 41.8874 33.2165 41.8877 38.2363C41.8877 38.8056 41.3942 39.2676 40.7861 39.2676C40.1782 39.2674 39.6846 38.8055 39.6846 38.2363C39.6842 34.5021 34.1044 31.3478 27.499 31.3477C20.8936 31.3477 15.3129 34.502 15.3125 38.2363C15.3125 38.8056 14.8197 39.2676 14.2109 39.2676C13.6021 39.2676 13.1094 38.8056 13.1094 38.2363C13.1097 33.2171 19.4307 29.2852 27.499 29.2852ZM27.5049 15.7324C31.1171 15.7326 34.0557 18.4845 34.0557 21.8662C34.0555 25.2478 31.117 27.9988 27.5049 27.999C23.8926 27.999 20.9533 25.2479 20.9531 21.8662C20.9531 18.4844 23.8925 15.7324 27.5049 15.7324ZM27.5049 17.7949C25.1071 17.7949 23.1562 19.6215 23.1562 21.8662C23.1564 24.1108 25.1072 25.9365 27.5049 25.9365C29.9024 25.9363 31.8524 24.1107 31.8525 21.8662C31.8525 19.6216 29.9024 17.7951 27.5049 17.7949Z" fill="white"/>
</svg>
