<svg width="32" height="32" viewBox="0 0 32 32" fill="none" xmlns="http://www.w3.org/2000/svg">
<g clip-path="url(#clip0_2977_5113)">
<mask id="mask0_2977_5113" style="mask-type:luminance" maskUnits="userSpaceOnUse" x="-2" y="-2" width="36" height="36">
<path d="M32 0H0V32H32V0Z" fill="white"/>
<path d="M0 32H18.55V13.45H0V32Z" fill="white"/>
<path d="M18.5474 32.9349H-0.9375V13.45H18.5474V32.9349Z" stroke="black" stroke-width="2" stroke-miterlimit="10"/>
<path d="M23.3442 28.1398H3.85938V8.6549H23.3442V28.1398Z" stroke="black" stroke-width="2" stroke-miterlimit="10"/>
<path d="M28.1411 23.3447H8.65625V3.85979H28.1411V23.3447Z" stroke="black" stroke-width="2" stroke-miterlimit="10"/>
<path d="M13.4453 18.5496H31.9949V-1.90735e-06H13.4453V18.5496Z" fill="white"/>
<path d="M32.9302 18.5496H13.4453V-0.935314H32.9302V18.5496Z" stroke="black" stroke-width="2" stroke-miterlimit="10"/>
</mask>
<g mask="url(#mask0_2977_5113)">
<path d="M0 32H18.55V13.45H0V32Z" fill="white"/>
<mask id="mask1_2977_5113" style="mask-type:luminance" maskUnits="userSpaceOnUse" x="0" y="0" width="32" height="32">
<path d="M0 3.8147e-06H32V32H0V3.8147e-06Z" fill="white"/>
</mask>
<g mask="url(#mask1_2977_5113)">
<path d="M18.5474 32.9349H-0.9375V13.45H18.5474V32.9349Z" stroke="white" stroke-width="2" stroke-miterlimit="10"/>
<path d="M18.5474 32.9349H-0.9375V13.45H18.5474V32.9349Z" stroke="white" stroke-width="2" stroke-miterlimit="10"/>
</g>
<path d="M23.3442 28.1398H3.85938V8.6549H23.3442V28.1398Z" fill="white" stroke="white" stroke-width="2" stroke-miterlimit="10"/>
<path d="M23.3442 28.1398H3.85938V8.6549H23.3442V28.1398Z" stroke="white" stroke-width="2" stroke-miterlimit="10"/>
<path d="M28.1411 23.3447H8.65625V3.85979H28.1411V23.3447Z" fill="white" stroke="white" stroke-width="2" stroke-miterlimit="10"/>
<path d="M28.1411 23.3447H8.65625V3.85979H28.1411V23.3447Z" stroke="white" stroke-width="2" stroke-miterlimit="10"/>
<path d="M13.4531 18.5496H32.0027V-1.90735e-06H13.4531V18.5496Z" fill="white"/>
<mask id="mask2_2977_5113" style="mask-type:luminance" maskUnits="userSpaceOnUse" x="0" y="0" width="32" height="32">
<path d="M0 3.8147e-06H32V32H0V3.8147e-06Z" fill="white"/>
</mask>
<g mask="url(#mask2_2977_5113)">
<path d="M32.938 18.5496H13.4531V-0.935314H32.938V18.5496Z" stroke="white" stroke-width="2" stroke-miterlimit="10"/>
<path d="M32.938 18.5496H13.4531V-0.935314H32.938V18.5496Z" stroke="white" stroke-width="2" stroke-miterlimit="10"/>
</g>
</g>
</g>
<defs>
<clipPath id="clip0_2977_5113">
<rect width="32" height="32" fill="white"/>
</clipPath>
</defs>
</svg>
