<svg width="32" height="32" viewBox="0 0 32 32" fill="none" xmlns="http://www.w3.org/2000/svg">
<path fill-rule="evenodd" clip-rule="evenodd" d="M11.582 11H5C3.343 11 2 9.657 2 8C2 6.343 3.343 5 5 5H11.582C11.207 5.927 11 6.939 11 8C11 9.061 11.207 10.073 11.582 11ZM26.418 5H27C28.657 5 30 6.343 30 8C30 9.657 28.657 11 27 11H26.418C26.793 10.073 27 9.061 27 8C27 6.939 26.793 5.927 26.418 5ZM5.582 27H5C3.343 27 2 25.657 2 24C2 22.343 3.343 21 5 21H5.582C5.207 21.927 5 22.939 5 24C5 25.061 5.207 26.073 5.582 27ZM20.418 21H27C28.657 21 30 22.343 30 24C30 25.657 28.657 27 27 27H20.418C20.793 26.073 21 25.061 21 24C21 22.939 20.793 21.927 20.418 21ZM13 18C16.311 18 19 20.689 19 24C19 27.311 16.311 30 13 30C9.689 30 7 27.311 7 24C7 20.689 9.689 18 13 18ZM19 2C22.311 2 25 4.689 25 8C25 11.311 22.311 14 19 14C15.689 14 13 11.311 13 8C13 4.689 15.689 2 19 2Z" fill="white"/>
</svg>
