<svg width="32" height="32" viewBox="0 0 32 32" fill="none" xmlns="http://www.w3.org/2000/svg">
<g clip-path="url(#clip0_2977_5157)">
<path d="M31.1805 9.6375C28.6868 4.2875 24.4055 1.275 18.6618 0.225C18.118 0.125 17.568 0.075 17.018 0H15.168C14.6555 0.06875 14.143 0.1375 13.6305 0.2125C10.518 0.6875 7.78675 1.975 5.43675 4.075C2.44925 6.75 0.686754 10.0938 0.199254 14.0688C-0.806996 22.2375 4.5555 29.8 12.5868 31.5938C13.3243 31.7563 14.0805 31.8125 14.8305 31.925C14.943 31.9437 15.0555 31.975 15.1743 32H17.0243C17.2118 31.975 17.393 31.9375 17.5805 31.925C19.268 31.8 20.9118 31.4813 22.4493 30.7313C23.8868 30.0312 25.0493 29.05 25.693 27.5438C26.3555 25.9938 26.1243 24.4125 25.0243 23.3312C24.6743 22.9875 24.2305 22.7375 23.818 22.4625C22.9493 21.8813 22.193 21.1937 21.768 20.2062C21.1118 18.6937 21.8368 17.1938 23.4305 16.75C24.4555 16.4625 25.3993 16.7063 26.3118 17.1625C27.0993 17.5625 27.9243 17.7188 28.7868 17.4937C30.4555 17.0688 31.3305 15.875 31.7305 14.3C32.143 12.6938 31.868 11.1125 31.1805 9.6375ZM10.818 6.41875C12.5743 6.41875 14.0055 7.8375 14.0055 9.6C14.0055 11.3625 12.5868 12.7875 10.8243 12.7875C9.068 12.7875 7.6555 11.3625 7.643 9.59375C7.643 7.86875 9.0805 6.425 10.818 6.41875ZM8.2555 21.7437C6.52425 21.7375 5.093 20.3 5.093 18.5688C5.08675 16.8125 6.51175 15.3813 8.268 15.3813C10.0243 15.3813 11.4555 16.8 11.4555 18.5562C11.4618 20.3125 10.0368 21.7437 8.2805 21.7437C8.27425 21.7437 8.26175 21.7437 8.2555 21.7437ZM14.6868 28.1437C12.943 28.1625 11.5055 26.7312 11.493 24.9625C11.4805 23.2375 12.918 21.7875 14.6493 21.775C16.393 21.7687 17.8368 23.175 17.8618 24.9062C17.8868 26.6688 16.4805 28.1187 14.718 28.1437C14.6993 28.1437 14.693 28.1437 14.6868 28.1437ZM19.768 11.5063C18.0305 11.5063 16.5993 10.05 16.6118 8.29375C16.643 6.5375 18.0993 5.1375 19.8555 5.175C21.5805 5.20625 22.968 6.6125 22.9743 8.34375C22.9743 10.0875 21.5368 11.5 19.768 11.5063Z" fill="white"/>
</g>
<defs>
<clipPath id="clip0_2977_5157">
<rect width="32" height="32" fill="white"/>
</clipPath>
</defs>
</svg>
