<svg width="32" height="32" viewBox="0 0 32 32" fill="none" xmlns="http://www.w3.org/2000/svg">
<path fill-rule="evenodd" clip-rule="evenodd" d="M15.9987 26.8269C16.522 26.1173 17.1067 25.3532 17.7163 24.5567C22.6332 18.1321 29.2333 9.50825 22.8151 3.09006C20.7549 1.03 18.3725 0 15.9987 0C13.6248 0 11.2424 1.03 9.18222 3.09006C2.7641 9.50819 9.36404 18.1321 14.281 24.5567C14.8906 25.3532 15.4753 26.1172 15.9987 26.8269ZM12.6786 24.2419C12.9289 24.5707 13.1763 24.8945 13.4208 25.2134C14.1842 26.2108 14.9073 27.1558 15.5583 28.0634C15.6091 28.1343 15.6761 28.1918 15.7539 28.2312C15.8316 28.2706 15.9176 28.2907 16.0048 28.2897C16.0919 28.2888 16.1775 28.2669 16.2544 28.2259C16.3312 28.1849 16.3971 28.1259 16.4463 28.0541C17.0953 27.1489 17.8161 26.2071 18.5768 25.2132C18.8208 24.8943 19.0683 24.5704 19.3192 24.2414C20.0867 24.6241 20.7229 25.134 21.1698 25.7282C21.6207 26.3279 21.8778 27.0169 21.8778 27.7477C21.8778 28.8907 21.2425 29.9366 20.2153 30.7035C19.1424 31.5047 17.6522 32 15.9987 32C14.3451 32 12.8549 31.5047 11.7823 30.7038C10.7552 29.9369 10.1198 28.8913 10.1198 27.7481C10.1198 27.0106 10.3823 26.3157 10.8416 25.7119C11.2888 25.1244 11.9198 24.6202 12.6787 24.2419H12.6786ZM18.7549 7.98856C19.3925 8.62619 19.7893 9.46517 19.8777 10.3626C19.9661 11.2599 19.7406 12.1602 19.2396 12.91C18.7386 13.6597 17.9932 14.2126 17.1303 14.4743C16.2674 14.7361 15.3404 14.6906 14.5073 14.3455C13.6742 14.0005 12.9866 13.3772 12.5615 12.582C12.1364 11.7867 12.0002 10.8687 12.1761 9.98429C12.352 9.09988 12.8291 8.30383 13.5261 7.73175C14.2231 7.15968 15.0969 6.84698 15.9987 6.84694C16.5106 6.84625 17.0177 6.94676 17.4907 7.14268C17.9637 7.3386 18.3934 7.62607 18.7549 7.98856ZM15.9987 5.7625C17.1514 5.7625 18.2684 6.16218 19.1595 6.89344C20.0505 7.6247 20.6604 8.6423 20.8853 9.77285C21.1102 10.9034 20.9361 12.0769 20.3927 13.0935C19.8494 14.1101 18.9703 14.9069 17.9054 15.348C16.8404 15.7891 15.6554 15.8473 14.5524 15.5127C13.4493 15.1781 12.4964 14.4714 11.856 13.5129C11.2156 12.5545 10.9273 11.4037 11.0403 10.2565C11.1533 9.10938 11.6605 8.0369 12.4756 7.22181C12.9377 6.75848 13.4869 6.39103 14.0915 6.1406C14.6961 5.89016 15.3442 5.76167 15.9987 5.7625Z" fill="white"/>
</svg>
